<svg xmlns="http://www.w3.org/2000/svg" viewBox="0 0 90.5 90"><defs><style>.cls-1{fill:#009dd8;}.cls-2{fill:#00aeef;}</style></defs><title>Ресурс 2</title><g id="Слой_2" data-name="Слой 2"><g id="Слой_1-2" data-name="Слой 1"><path class="cls-1" d="M90.3,90H81.66a35.42,35.42,0,0,1-18.31-5.5A34.55,34.55,0,0,1,50.64,70C40.86,48.92,31.29,24,23.18,12a22,22,0,0,0-6.1-6A18.24,18.24,0,0,0,9,3C7.7,2.9.74,2.95,0,3V0H90.3Z"/><path class="cls-2" d="M15.93,0A14.43,14.43,0,0,1,22.3,3a14.78,14.78,0,0,1,3.92,5L60.53,67.47a27,27,0,0,0,11.76,13,25.54,25.54,0,0,0,11.76,3c19.44,0-13.2-.07,6.24-.07V0Z"/></g></g></svg>