<svg xmlns="http://www.w3.org/2000/svg" viewBox="0 0 144 144"><defs><style>.cls-1{fill:#fff;}</style></defs><title>Ресурс 4</title><g id="Слой_2" data-name="Слой 2"><g id="Слой_1-2" data-name="Слой 1"><path class="cls-1" d="M72,0a72,72,0,1,0,72,72A72,72,0,0,0,72,0Zm0,139.59A67.59,67.59,0,1,1,139.59,72,67.59,67.59,0,0,1,72,139.59Z"/><rect class="cls-1" x="52.41" y="36.73" width="11.76" height="67.59" rx="5.88" ry="5.88"/><path class="cls-1" d="M50,45.06h0a0,0,0,0,1,0,0v57.31a0,0,0,0,1,0,0h0a6.86,6.86,0,0,1-6.86-6.86V51.92A6.86,6.86,0,0,1,50,45.06Z"/><path class="cls-1" d="M98.08,45.06H71.39a4.78,4.78,0,0,0-4.78,4.78V98.08a4.78,4.78,0,0,0,4.78,4.78H98.08a4.78,4.78,0,0,0,4.78-4.78V49.84A4.78,4.78,0,0,0,98.08,45.06ZM78.37,98.45H71V91.1h7.35Zm0-10.29H71V80.82h7.35Zm0-10.29H71V70.53h7.35ZM88.65,98.45H81.31V91.1h7.35Zm0-10.29H81.31V80.82h7.35Zm0-10.29H81.31V70.53h7.35ZM98.94,98.45H91.59V91.1h7.35Zm0-10.29H91.59V80.82h7.35Zm0-10.29H91.59V70.53h7.35Zm0-18.12H70.53V50.94H98.94Z"/><path class="cls-1" d="M54.86,103.84a8.75,8.75,0,0,1-6.37,7.84c-4.28,1-9.22-2.13-10.29-7.35v-25H35.76v25.47a13.25,13.25,0,0,0,12.73,11.76c7.84,0,11.76-5.88,12.73-11.76v-1Z"/></g></g></svg>