<svg xmlns="http://www.w3.org/2000/svg" viewBox="0 0 144 144"><defs><style>.cls-1{fill:#fff}</style></defs><g id="Слой_2" data-name="Слой 2"><g id="Слой_1-2" data-name="Слой 1"><path class="cls-1" d="M72 0a72 72 0 1 0 72 72A72 72 0 0 0 72 0zm0 139.59A67.59 67.59 0 1 1 139.59 72 67.59 67.59 0 0 1 72 139.59z"/><rect class="cls-1" x="52.41" y="36.73" width="11.76" height="67.59" rx="5.88" ry="5.88"/><path class="cls-1" d="M50 45.06v57.31a6.86 6.86 0 0 1-6.86-6.86V51.92A6.86 6.86 0 0 1 50 45.06zm48.08 0H71.39a4.78 4.78 0 0 0-4.78 4.78v48.24a4.78 4.78 0 0 0 4.78 4.78h26.69a4.78 4.78 0 0 0 4.78-4.78V49.84a4.78 4.78 0 0 0-4.78-4.78zM78.37 98.45H71V91.1h7.35zm0-10.29H71v-7.34h7.35zm0-10.29H71v-7.34h7.35zm10.28 20.58h-7.34V91.1h7.35zm0-10.29h-7.34v-7.34h7.35zm0-10.29h-7.34v-7.34h7.35zm10.29 20.58h-7.35V91.1h7.35zm0-10.29h-7.35v-7.34h7.35zm0-10.29h-7.35v-7.34h7.35zm0-18.12H70.53v-8.81h28.41z"/><path class="cls-1" d="M54.86 103.84a8.75 8.75 0 0 1-6.37 7.84c-4.28 1-9.22-2.13-10.29-7.35v-25h-2.44v25.47a13.25 13.25 0 0 0 12.73 11.76c7.84 0 11.76-5.88 12.73-11.76v-1z"/></g></g></svg>